<?xml version="1.0" encoding="UTF-8"?>
<svg xmlns="http://www.w3.org/2000/svg" viewBox="0 0 520 180" width="520" height="180">
  <rect width="520" height="180" fill="#0a0a0a"/>
  <g transform="translate(16, 24)">
    <rect x="32" y="0" width="8" height="8" fill="#00e5ff"/>
<rect x="40" y="0" width="8" height="8" fill="#00e5ff"/>
<rect x="48" y="0" width="8" height="8" fill="#00e5ff"/>
<rect x="56" y="0" width="8" height="8" fill="#00e5ff"/>
<rect x="24" y="8" width="8" height="8" fill="#00e5ff"/>
<rect x="32" y="8" width="8" height="8" fill="#00e5ff"/>
<rect x="56" y="8" width="8" height="8" fill="#00e5ff"/>
<rect x="64" y="8" width="8" height="8" fill="#00e5ff"/>
<rect x="16" y="16" width="8" height="8" fill="#00e5ff"/>
<rect x="24" y="16" width="8" height="8" fill="#00e5ff"/>
<rect x="64" y="16" width="8" height="8" fill="#00e5ff"/>
<rect x="72" y="16" width="8" height="8" fill="#00e5ff"/>
<rect x="8" y="24" width="8" height="8" fill="#00e5ff"/>
<rect x="16" y="24" width="8" height="8" fill="#00e5ff"/>
<rect x="72" y="24" width="8" height="8" fill="#00e5ff"/>
<rect x="80" y="24" width="8" height="8" fill="#00e5ff"/>
<rect x="0" y="32" width="8" height="8" fill="#00e5ff"/>
<rect x="8" y="32" width="8" height="8" fill="#00e5ff"/>
<rect x="32" y="32" width="8" height="8" fill="#00ffff"/>
<rect x="40" y="32" width="8" height="8" fill="#00ffff"/>
<rect x="80" y="32" width="8" height="8" fill="#00e5ff"/>
<rect x="88" y="32" width="8" height="8" fill="#00e5ff"/>
<rect x="0" y="40" width="8" height="8" fill="#00e5ff"/>
<rect x="8" y="40" width="8" height="8" fill="#00e5ff"/>
<rect x="32" y="40" width="8" height="8" fill="#00ffff"/>
<rect x="40" y="40" width="8" height="8" fill="#00ffff"/>
<rect x="80" y="40" width="8" height="8" fill="#00e5ff"/>
<rect x="88" y="40" width="8" height="8" fill="#00e5ff"/>
<rect x="0" y="48" width="8" height="8" fill="#00e5ff"/>
<rect x="8" y="48" width="8" height="8" fill="#00e5ff"/>
<rect x="80" y="48" width="8" height="8" fill="#00e5ff"/>
<rect x="88" y="48" width="8" height="8" fill="#00e5ff"/>
<rect x="0" y="56" width="8" height="8" fill="#00e5ff"/>
<rect x="8" y="56" width="8" height="8" fill="#00e5ff"/>
<rect x="80" y="56" width="8" height="8" fill="#00e5ff"/>
<rect x="88" y="56" width="8" height="8" fill="#00e5ff"/>
<rect x="0" y="64" width="8" height="8" fill="#00e5ff"/>
<rect x="8" y="64" width="8" height="8" fill="#00e5ff"/>
<rect x="16" y="64" width="8" height="8" fill="#00e5ff"/>
<rect x="24" y="64" width="8" height="8" fill="#00e5ff"/>
<rect x="32" y="64" width="8" height="8" fill="#00e5ff"/>
<rect x="40" y="64" width="8" height="8" fill="#00e5ff"/>
<rect x="48" y="64" width="8" height="8" fill="#00e5ff"/>
<rect x="56" y="64" width="8" height="8" fill="#00e5ff"/>
<rect x="64" y="64" width="8" height="8" fill="#00e5ff"/>
<rect x="72" y="64" width="8" height="8" fill="#00e5ff"/>
<rect x="80" y="64" width="8" height="8" fill="#00e5ff"/>
<rect x="0" y="72" width="8" height="8" fill="#00e5ff"/>
<rect x="8" y="72" width="8" height="8" fill="#00e5ff"/>
<rect x="80" y="72" width="8" height="8" fill="#00e5ff"/>
<rect x="88" y="72" width="8" height="8" fill="#00e5ff"/>
<rect x="0" y="80" width="8" height="8" fill="#00e5ff"/>
<rect x="8" y="80" width="8" height="8" fill="#00e5ff"/>
<rect x="80" y="80" width="8" height="8" fill="#00e5ff"/>
<rect x="88" y="80" width="8" height="8" fill="#00e5ff"/>
<rect x="0" y="88" width="8" height="8" fill="#00e5ff"/>
<rect x="8" y="88" width="8" height="8" fill="#00e5ff"/>
<rect x="80" y="88" width="8" height="8" fill="#00e5ff"/>
<rect x="88" y="88" width="8" height="8" fill="#00e5ff"/>
<rect x="0" y="96" width="8" height="8" fill="#00e5ff"/>
<rect x="8" y="96" width="8" height="8" fill="#00e5ff"/>
<rect x="80" y="96" width="8" height="8" fill="#00e5ff"/>
<rect x="88" y="96" width="8" height="8" fill="#00e5ff"/>
<rect x="0" y="104" width="8" height="8" fill="#00e5ff"/>
<rect x="8" y="104" width="8" height="8" fill="#00e5ff"/>
<rect x="80" y="104" width="8" height="8" fill="#00e5ff"/>
<rect x="88" y="104" width="8" height="8" fill="#00e5ff"/>
<rect x="0" y="112" width="8" height="8" fill="#00e5ff"/>
<rect x="8" y="112" width="8" height="8" fill="#00e5ff"/>
<rect x="80" y="112" width="8" height="8" fill="#00e5ff"/>
<rect x="88" y="112" width="8" height="8" fill="#00e5ff"/>
<rect x="0" y="120" width="8" height="8" fill="#00e5ff"/>
<rect x="8" y="120" width="8" height="8" fill="#00e5ff"/>
<rect x="80" y="120" width="8" height="8" fill="#00e5ff"/>
<rect x="88" y="120" width="8" height="8" fill="#00e5ff"/>
  </g>
  <text x="130" y="52" font-family="Consolas, Courier New, monospace" font-size="28" font-weight="bold" fill="#00e5ff" letter-spacing="3">AGNES</text>
  <text x="130" y="78" font-family="Consolas, Courier New, monospace" font-size="14" fill="#00b8d4" letter-spacing="1">Smart Studio</text>
  <line x1="130" y1="94" x2="500" y2="94" stroke="#4a4a4a" stroke-width="1"/>
  <text x="130" y="112" font-family="Consolas, Courier New, monospace" font-size="11" fill="#4a4a4a">AI-native creative engine</text>
  <line x1="16" y1="168" x2="504" y2="168" stroke="#4a4a4a" stroke-width="1" opacity="0.3"/>
  <text x="16" y="160" font-family="Consolas, Courier New, monospace" font-size="10" fill="#4a4a4a">v5.0  .  107 tools  .  62 skills  .  Codex parity</text>
</svg>