<?xml version="1.0" encoding="UTF-8"?>
<svg xmlns="http://www.w3.org/2000/svg" viewBox="0 0 450 170" width="450" height="170">
  <rect width="450" height="170" fill="#0F0F2D"/>
  <g>
    <rect x="50" y="30" width="10" height="10" fill="#00E5FF" opacity="1.0"/>
    <rect x="60" y="30" width="10" height="10" fill="#00E5FF" opacity="1.0"/>
    <rect x="70" y="30" width="10" height="10" fill="#00E5FF" opacity="1.0"/>
    <rect x="80" y="30" width="10" height="10" fill="#00E5FF" opacity="1.0"/>
    <rect x="130" y="30" width="10" height="10" fill="#FFD700" opacity="1.0"/>
    <rect x="140" y="30" width="10" height="10" fill="#FFD700" opacity="1.0"/>
    <rect x="150" y="30" width="10" height="10" fill="#FFD700" opacity="1.0"/>
    <rect x="160" y="30" width="10" height="10" fill="#FFD700" opacity="1.0"/>
    <rect x="170" y="30" width="10" height="10" fill="#FFD700" opacity="1.0"/>
    <rect x="180" y="30" width="10" height="10" fill="#FFD700" opacity="1.0"/>
    <rect x="230" y="30" width="10" height="10" fill="#00E5FF" opacity="1.0"/>
    <rect x="240" y="30" width="10" height="10" fill="#00E5FF" opacity="1.0"/>
    <rect x="280" y="30" width="10" height="10" fill="#00E5FF" opacity="1.0"/>
    <rect x="290" y="30" width="10" height="10" fill="#00E5FF" opacity="1.0"/>
    <rect x="330" y="30" width="10" height="10" fill="#00E5FF" opacity="1.0"/>
    <rect x="340" y="30" width="10" height="10" fill="#00E5FF" opacity="1.0"/>
    <rect x="380" y="30" width="10" height="10" fill="#00E5FF" opacity="1.0"/>
    <rect x="390" y="30" width="10" height="10" fill="#00E5FF" opacity="1.0"/>
    <rect x="40" y="40" width="10" height="10" fill="#00E5FF" opacity="1.0"/>
    <rect x="50" y="40" width="10" height="10" fill="#00E5FF" opacity="1.0"/>
    <rect x="60" y="40" width="10" height="10" fill="#556677" opacity="0.55"/>
    <rect x="70" y="40" width="10" height="10" fill="#556677" opacity="0.55"/>
    <rect x="80" y="40" width="10" height="10" fill="#00E5FF" opacity="1.0"/>
    <rect x="90" y="40" width="10" height="10" fill="#00E5FF" opacity="1.0"/>
    <rect x="130" y="40" width="10" height="10" fill="#FFD700" opacity="1.0"/>
    <rect x="140" y="40" width="10" height="10" fill="#FFD700" opacity="1.0"/>
    <rect x="150" y="40" width="10" height="10" fill="#556677" opacity="0.55"/>
    <rect x="160" y="40" width="10" height="10" fill="#556677" opacity="0.55"/>
    <rect x="170" y="40" width="10" height="10" fill="#556677" opacity="0.55"/>
    <rect x="180" y="40" width="10" height="10" fill="#FFD700" opacity="1.0"/>
    <rect x="190" y="40" width="10" height="10" fill="#FFD700" opacity="1.0"/>
    <rect x="230" y="40" width="10" height="10" fill="#00E5FF" opacity="1.0"/>
    <rect x="240" y="40" width="10" height="10" fill="#00E5FF" opacity="1.0"/>
    <rect x="250" y="40" width="10" height="10" fill="#556677" opacity="0.55"/>
    <rect x="280" y="40" width="10" height="10" fill="#00E5FF" opacity="1.0"/>
    <rect x="290" y="40" width="10" height="10" fill="#00E5FF" opacity="1.0"/>
    <rect x="300" y="40" width="10" height="10" fill="#556677" opacity="0.55"/>
    <rect x="340" y="40" width="10" height="10" fill="#00E5FF" opacity="1.0"/>
    <rect x="350" y="40" width="10" height="10" fill="#00E5FF" opacity="1.0"/>
    <rect x="370" y="40" width="10" height="10" fill="#00E5FF" opacity="1.0"/>
    <rect x="380" y="40" width="10" height="10" fill="#00E5FF" opacity="1.0"/>
    <rect x="390" y="40" width="10" height="10" fill="#556677" opacity="0.55"/>
    <rect x="400" y="40" width="10" height="10" fill="#556677" opacity="0.55"/>
    <rect x="30" y="50" width="10" height="10" fill="#00E5FF" opacity="1.0"/>
    <rect x="40" y="50" width="10" height="10" fill="#00E5FF" opacity="1.0"/>
    <rect x="50" y="50" width="10" height="10" fill="#556677" opacity="0.55"/>
    <rect x="60" y="50" width="10" height="10" fill="#556677" opacity="0.55"/>
    <rect x="90" y="50" width="10" height="10" fill="#00E5FF" opacity="1.0"/>
    <rect x="100" y="50" width="10" height="10" fill="#00E5FF" opacity="1.0"/>
    <rect x="130" y="50" width="10" height="10" fill="#FFD700" opacity="1.0"/>
    <rect x="140" y="50" width="10" height="10" fill="#FFD700" opacity="1.0"/>
    <rect x="150" y="50" width="10" height="10" fill="#556677" opacity="0.55"/>
    <rect x="180" y="50" width="10" height="10" fill="#FFD700" opacity="1.0"/>
    <rect x="190" y="50" width="10" height="10" fill="#FFD700" opacity="1.0"/>
    <rect x="200" y="50" width="10" height="10" fill="#556677" opacity="0.55"/>
    <rect x="230" y="50" width="10" height="10" fill="#00E5FF" opacity="1.0"/>
    <rect x="240" y="50" width="10" height="10" fill="#00E5FF" opacity="1.0"/>
    <rect x="250" y="50" width="10" height="10" fill="#556677" opacity="0.55"/>
    <rect x="280" y="50" width="10" height="10" fill="#00E5FF" opacity="1.0"/>
    <rect x="290" y="50" width="10" height="10" fill="#00E5FF" opacity="1.0"/>
    <rect x="300" y="50" width="10" height="10" fill="#556677" opacity="0.55"/>
    <rect x="350" y="50" width="10" height="10" fill="#00E5FF" opacity="1.0"/>
    <rect x="360" y="50" width="10" height="10" fill="#00E5FF" opacity="1.0"/>
    <rect x="370" y="50" width="10" height="10" fill="#00E5FF" opacity="1.0"/>
    <rect x="380" y="50" width="10" height="10" fill="#556677" opacity="0.55"/>
    <rect x="390" y="50" width="10" height="10" fill="#556677" opacity="0.55"/>
    <rect x="30" y="60" width="10" height="10" fill="#00E5FF" opacity="1.0"/>
    <rect x="40" y="60" width="10" height="10" fill="#00E5FF" opacity="1.0"/>
    <rect x="50" y="60" width="10" height="10" fill="#556677" opacity="0.55"/>
    <rect x="100" y="60" width="10" height="10" fill="#556677" opacity="0.55"/>
    <rect x="110" y="60" width="10" height="10" fill="#556677" opacity="0.55"/>
    <rect x="130" y="60" width="10" height="10" fill="#FFD700" opacity="1.0"/>
    <rect x="140" y="60" width="10" height="10" fill="#FFD700" opacity="1.0"/>
    <rect x="150" y="60" width="10" height="10" fill="#FFD700" opacity="1.0"/>
    <rect x="160" y="60" width="10" height="10" fill="#FFD700" opacity="1.0"/>
    <rect x="170" y="60" width="10" height="10" fill="#FFD700" opacity="1.0"/>
    <rect x="180" y="60" width="10" height="10" fill="#FFD700" opacity="1.0"/>
    <rect x="190" y="60" width="10" height="10" fill="#556677" opacity="0.55"/>
    <rect x="200" y="60" width="10" height="10" fill="#556677" opacity="0.55"/>
    <rect x="230" y="60" width="10" height="10" fill="#00E5FF" opacity="1.0"/>
    <rect x="240" y="60" width="10" height="10" fill="#00E5FF" opacity="1.0"/>
    <rect x="250" y="60" width="10" height="10" fill="#556677" opacity="0.55"/>
    <rect x="280" y="60" width="10" height="10" fill="#00E5FF" opacity="1.0"/>
    <rect x="290" y="60" width="10" height="10" fill="#00E5FF" opacity="1.0"/>
    <rect x="300" y="60" width="10" height="10" fill="#556677" opacity="0.55"/>
    <rect x="360" y="60" width="10" height="10" fill="#00E5FF" opacity="1.0"/>
    <rect x="370" y="60" width="10" height="10" fill="#00E5FF" opacity="1.0"/>
    <rect x="380" y="60" width="10" height="10" fill="#556677" opacity="0.55"/>
    <rect x="30" y="70" width="10" height="10" fill="#00E5FF" opacity="1.0"/>
    <rect x="40" y="70" width="10" height="10" fill="#00E5FF" opacity="1.0"/>
    <rect x="50" y="70" width="10" height="10" fill="#556677" opacity="0.55"/>
    <rect x="130" y="70" width="10" height="10" fill="#FFD700" opacity="1.0"/>
    <rect x="140" y="70" width="10" height="10" fill="#FFD700" opacity="1.0"/>
    <rect x="150" y="70" width="10" height="10" fill="#556677" opacity="0.55"/>
    <rect x="160" y="70" width="10" height="10" fill="#FFD700" opacity="1.0"/>
    <rect x="170" y="70" width="10" height="10" fill="#FFD700" opacity="1.0"/>
    <rect x="180" y="70" width="10" height="10" fill="#556677" opacity="0.55"/>
    <rect x="190" y="70" width="10" height="10" fill="#556677" opacity="0.55"/>
    <rect x="230" y="70" width="10" height="10" fill="#00E5FF" opacity="1.0"/>
    <rect x="240" y="70" width="10" height="10" fill="#00E5FF" opacity="1.0"/>
    <rect x="250" y="70" width="10" height="10" fill="#556677" opacity="0.55"/>
    <rect x="280" y="70" width="10" height="10" fill="#00E5FF" opacity="1.0"/>
    <rect x="290" y="70" width="10" height="10" fill="#00E5FF" opacity="1.0"/>
    <rect x="300" y="70" width="10" height="10" fill="#556677" opacity="0.55"/>
    <rect x="350" y="70" width="10" height="10" fill="#00E5FF" opacity="1.0"/>
    <rect x="360" y="70" width="10" height="10" fill="#00E5FF" opacity="1.0"/>
    <rect x="370" y="70" width="10" height="10" fill="#00E5FF" opacity="1.0"/>
    <rect x="380" y="70" width="10" height="10" fill="#556677" opacity="0.55"/>
    <rect x="30" y="80" width="10" height="10" fill="#00E5FF" opacity="1.0"/>
    <rect x="40" y="80" width="10" height="10" fill="#00E5FF" opacity="1.0"/>
    <rect x="50" y="80" width="10" height="10" fill="#556677" opacity="0.55"/>
    <rect x="90" y="80" width="10" height="10" fill="#00E5FF" opacity="1.0"/>
    <rect x="100" y="80" width="10" height="10" fill="#00E5FF" opacity="1.0"/>
    <rect x="130" y="80" width="10" height="10" fill="#FFD700" opacity="1.0"/>
    <rect x="140" y="80" width="10" height="10" fill="#FFD700" opacity="1.0"/>
    <rect x="150" y="80" width="10" height="10" fill="#556677" opacity="0.55"/>
    <rect x="170" y="80" width="10" height="10" fill="#FFD700" opacity="1.0"/>
    <rect x="180" y="80" width="10" height="10" fill="#FFD700" opacity="1.0"/>
    <rect x="230" y="80" width="10" height="10" fill="#00E5FF" opacity="1.0"/>
    <rect x="240" y="80" width="10" height="10" fill="#00E5FF" opacity="1.0"/>
    <rect x="250" y="80" width="10" height="10" fill="#556677" opacity="0.55"/>
    <rect x="280" y="80" width="10" height="10" fill="#00E5FF" opacity="1.0"/>
    <rect x="290" y="80" width="10" height="10" fill="#00E5FF" opacity="1.0"/>
    <rect x="300" y="80" width="10" height="10" fill="#556677" opacity="0.55"/>
    <rect x="340" y="80" width="10" height="10" fill="#00E5FF" opacity="1.0"/>
    <rect x="350" y="80" width="10" height="10" fill="#00E5FF" opacity="1.0"/>
    <rect x="360" y="80" width="10" height="10" fill="#556677" opacity="0.55"/>
    <rect x="370" y="80" width="10" height="10" fill="#00E5FF" opacity="1.0"/>
    <rect x="380" y="80" width="10" height="10" fill="#00E5FF" opacity="1.0"/>
    <rect x="40" y="90" width="10" height="10" fill="#00E5FF" opacity="1.0"/>
    <rect x="50" y="90" width="10" height="10" fill="#00E5FF" opacity="1.0"/>
    <rect x="80" y="90" width="10" height="10" fill="#00E5FF" opacity="1.0"/>
    <rect x="90" y="90" width="10" height="10" fill="#00E5FF" opacity="1.0"/>
    <rect x="100" y="90" width="10" height="10" fill="#556677" opacity="0.55"/>
    <rect x="110" y="90" width="10" height="10" fill="#556677" opacity="0.55"/>
    <rect x="130" y="90" width="10" height="10" fill="#FFD700" opacity="1.0"/>
    <rect x="140" y="90" width="10" height="10" fill="#FFD700" opacity="1.0"/>
    <rect x="150" y="90" width="10" height="10" fill="#556677" opacity="0.55"/>
    <rect x="180" y="90" width="10" height="10" fill="#FFD700" opacity="1.0"/>
    <rect x="190" y="90" width="10" height="10" fill="#FFD700" opacity="1.0"/>
    <rect x="230" y="90" width="10" height="10" fill="#00E5FF" opacity="1.0"/>
    <rect x="240" y="90" width="10" height="10" fill="#00E5FF" opacity="1.0"/>
    <rect x="250" y="90" width="10" height="10" fill="#556677" opacity="0.55"/>
    <rect x="280" y="90" width="10" height="10" fill="#00E5FF" opacity="1.0"/>
    <rect x="290" y="90" width="10" height="10" fill="#00E5FF" opacity="1.0"/>
    <rect x="300" y="90" width="10" height="10" fill="#556677" opacity="0.55"/>
    <rect x="330" y="90" width="10" height="10" fill="#00E5FF" opacity="1.0"/>
    <rect x="340" y="90" width="10" height="10" fill="#00E5FF" opacity="1.0"/>
    <rect x="350" y="90" width="10" height="10" fill="#556677" opacity="0.55"/>
    <rect x="360" y="90" width="10" height="10" fill="#556677" opacity="0.55"/>
    <rect x="380" y="90" width="10" height="10" fill="#00E5FF" opacity="1.0"/>
    <rect x="390" y="90" width="10" height="10" fill="#00E5FF" opacity="1.0"/>
    <rect x="50" y="100" width="10" height="10" fill="#00E5FF" opacity="1.0"/>
    <rect x="60" y="100" width="10" height="10" fill="#00E5FF" opacity="1.0"/>
    <rect x="70" y="100" width="10" height="10" fill="#00E5FF" opacity="1.0"/>
    <rect x="80" y="100" width="10" height="10" fill="#00E5FF" opacity="1.0"/>
    <rect x="90" y="100" width="10" height="10" fill="#556677" opacity="0.55"/>
    <rect x="100" y="100" width="10" height="10" fill="#556677" opacity="0.55"/>
    <rect x="130" y="100" width="10" height="10" fill="#FFD700" opacity="1.0"/>
    <rect x="140" y="100" width="10" height="10" fill="#FFD700" opacity="1.0"/>
    <rect x="150" y="100" width="10" height="10" fill="#556677" opacity="0.55"/>
    <rect x="180" y="100" width="10" height="10" fill="#FFD700" opacity="1.0"/>
    <rect x="190" y="100" width="10" height="10" fill="#FFD700" opacity="1.0"/>
    <rect x="200" y="100" width="10" height="10" fill="#556677" opacity="0.55"/>
    <rect x="240" y="100" width="10" height="10" fill="#00E5FF" opacity="1.0"/>
    <rect x="250" y="100" width="10" height="10" fill="#00E5FF" opacity="1.0"/>
    <rect x="260" y="100" width="10" height="10" fill="#00E5FF" opacity="1.0"/>
    <rect x="270" y="100" width="10" height="10" fill="#00E5FF" opacity="1.0"/>
    <rect x="280" y="100" width="10" height="10" fill="#00E5FF" opacity="1.0"/>
    <rect x="290" y="100" width="10" height="10" fill="#556677" opacity="0.55"/>
    <rect x="300" y="100" width="10" height="10" fill="#556677" opacity="0.55"/>
    <rect x="330" y="100" width="10" height="10" fill="#00E5FF" opacity="1.0"/>
    <rect x="340" y="100" width="10" height="10" fill="#00E5FF" opacity="1.0"/>
    <rect x="350" y="100" width="10" height="10" fill="#556677" opacity="0.55"/>
    <rect x="380" y="100" width="10" height="10" fill="#00E5FF" opacity="1.0"/>
    <rect x="390" y="100" width="10" height="10" fill="#00E5FF" opacity="1.0"/>
    <rect x="400" y="100" width="10" height="10" fill="#556677" opacity="0.55"/>
    <rect x="60" y="110" width="10" height="10" fill="#556677" opacity="0.55"/>
    <rect x="70" y="110" width="10" height="10" fill="#556677" opacity="0.55"/>
    <rect x="80" y="110" width="10" height="10" fill="#556677" opacity="0.55"/>
    <rect x="90" y="110" width="10" height="10" fill="#556677" opacity="0.55"/>
    <rect x="140" y="110" width="10" height="10" fill="#556677" opacity="0.55"/>
    <rect x="150" y="110" width="10" height="10" fill="#556677" opacity="0.55"/>
    <rect x="190" y="110" width="10" height="10" fill="#556677" opacity="0.55"/>
    <rect x="200" y="110" width="10" height="10" fill="#556677" opacity="0.55"/>
    <rect x="250" y="110" width="10" height="10" fill="#556677" opacity="0.55"/>
    <rect x="260" y="110" width="10" height="10" fill="#556677" opacity="0.55"/>
    <rect x="270" y="110" width="10" height="10" fill="#556677" opacity="0.55"/>
    <rect x="280" y="110" width="10" height="10" fill="#556677" opacity="0.55"/>
    <rect x="290" y="110" width="10" height="10" fill="#556677" opacity="0.55"/>
    <rect x="340" y="110" width="10" height="10" fill="#556677" opacity="0.55"/>
    <rect x="350" y="110" width="10" height="10" fill="#556677" opacity="0.55"/>
    <rect x="390" y="110" width="10" height="10" fill="#556677" opacity="0.55"/>
    <rect x="400" y="110" width="10" height="10" fill="#556677" opacity="0.55"/>
  </g>
  <text x="30" y="148" font-family="Consolas, Courier New, monospace" font-size="15" fill="#FFD700">★</text>
  <text x="54" y="148" font-family="Consolas, Courier New, monospace" font-size="14" fill="#C084FC">v5.0</text>
  <text x="98" y="148" font-family="Consolas, Courier New, monospace" font-size="13" fill="#556677">  ·  84 tools  ·  734 skills  ·  五兽归真 · AI-native creative platform</text>
  <g opacity="0.06">
    <line x1="0" y1="4" x2="450" y2="4" stroke="#000" stroke-width="1"/>
    <line x1="0" y1="8" x2="450" y2="8" stroke="#000" stroke-width="1"/>
    <line x1="0" y1="12" x2="450" y2="12" stroke="#000" stroke-width="1"/>
    <line x1="0" y1="16" x2="450" y2="16" stroke="#000" stroke-width="1"/>
    <line x1="0" y1="20" x2="450" y2="20" stroke="#000" stroke-width="1"/>
    <line x1="0" y1="24" x2="450" y2="24" stroke="#000" stroke-width="1"/>
    <line x1="0" y1="28" x2="450" y2="28" stroke="#000" stroke-width="1"/>
    <line x1="0" y1="32" x2="450" y2="32" stroke="#000" stroke-width="1"/>
    <line x1="0" y1="36" x2="450" y2="36" stroke="#000" stroke-width="1"/>
    <line x1="0" y1="40" x2="450" y2="40" stroke="#000" stroke-width="1"/>
    <line x1="0" y1="44" x2="450" y2="44" stroke="#000" stroke-width="1"/>
    <line x1="0" y1="48" x2="450" y2="48" stroke="#000" stroke-width="1"/>
    <line x1="0" y1="52" x2="450" y2="52" stroke="#000" stroke-width="1"/>
    <line x1="0" y1="56" x2="450" y2="56" stroke="#000" stroke-width="1"/>
    <line x1="0" y1="60" x2="450" y2="60" stroke="#000" stroke-width="1"/>
    <line x1="0" y1="64" x2="450" y2="64" stroke="#000" stroke-width="1"/>
    <line x1="0" y1="68" x2="450" y2="68" stroke="#000" stroke-width="1"/>
    <line x1="0" y1="72" x2="450" y2="72" stroke="#000" stroke-width="1"/>
    <line x1="0" y1="76" x2="450" y2="76" stroke="#000" stroke-width="1"/>
    <line x1="0" y1="80" x2="450" y2="80" stroke="#000" stroke-width="1"/>
    <line x1="0" y1="84" x2="450" y2="84" stroke="#000" stroke-width="1"/>
    <line x1="0" y1="88" x2="450" y2="88" stroke="#000" stroke-width="1"/>
    <line x1="0" y1="92" x2="450" y2="92" stroke="#000" stroke-width="1"/>
    <line x1="0" y1="96" x2="450" y2="96" stroke="#000" stroke-width="1"/>
    <line x1="0" y1="100" x2="450" y2="100" stroke="#000" stroke-width="1"/>
    <line x1="0" y1="104" x2="450" y2="104" stroke="#000" stroke-width="1"/>
    <line x1="0" y1="108" x2="450" y2="108" stroke="#000" stroke-width="1"/>
    <line x1="0" y1="112" x2="450" y2="112" stroke="#000" stroke-width="1"/>
    <line x1="0" y1="116" x2="450" y2="116" stroke="#000" stroke-width="1"/>
    <line x1="0" y1="120" x2="450" y2="120" stroke="#000" stroke-width="1"/>
    <line x1="0" y1="124" x2="450" y2="124" stroke="#000" stroke-width="1"/>
    <line x1="0" y1="128" x2="450" y2="128" stroke="#000" stroke-width="1"/>
    <line x1="0" y1="132" x2="450" y2="132" stroke="#000" stroke-width="1"/>
    <line x1="0" y1="136" x2="450" y2="136" stroke="#000" stroke-width="1"/>
    <line x1="0" y1="140" x2="450" y2="140" stroke="#000" stroke-width="1"/>
    <line x1="0" y1="144" x2="450" y2="144" stroke="#000" stroke-width="1"/>
    <line x1="0" y1="148" x2="450" y2="148" stroke="#000" stroke-width="1"/>
    <line x1="0" y1="152" x2="450" y2="152" stroke="#000" stroke-width="1"/>
    <line x1="0" y1="156" x2="450" y2="156" stroke="#000" stroke-width="1"/>
    <line x1="0" y1="160" x2="450" y2="160" stroke="#000" stroke-width="1"/>
    <line x1="0" y1="164" x2="450" y2="164" stroke="#000" stroke-width="1"/>
    <line x1="0" y1="168" x2="450" y2="168" stroke="#000" stroke-width="1"/>
  </g>
</svg>
