<?xml version="1.0" encoding="UTF-8"?>
<svg xmlns="http://www.w3.org/2000/svg" viewBox="0 0 64 64" width="64" height="64">
  <rect width="64" height="64" fill="#0F0F2D"/>
  <g opacity="0.6">
    <rect x="19" y="19" width="6" height="6" fill="#556677" opacity="0.5"/>
    <rect x="31" y="19" width="6" height="6" fill="#556677" opacity="0.5"/>
    <rect x="43" y="19" width="6" height="6" fill="#556677" opacity="0.5"/>
    <rect x="13" y="25" width="6" height="6" fill="#556677" opacity="0.5"/>
    <rect x="25" y="25" width="6" height="6" fill="#556677" opacity="0.5"/>
    <rect x="37" y="25" width="6" height="6" fill="#556677" opacity="0.5"/>
    <rect x="49" y="25" width="6" height="6" fill="#556677" opacity="0.5"/>
    <rect x="25" y="31" width="6" height="6" fill="#556677" opacity="0.5"/>
    <rect x="31" y="31" width="6" height="6" fill="#556677" opacity="0.5"/>
    <rect x="37" y="31" width="6" height="6" fill="#556677" opacity="0.5"/>
    <rect x="13" y="37" width="6" height="6" fill="#556677" opacity="0.5"/>
    <rect x="25" y="37" width="6" height="6" fill="#556677" opacity="0.5"/>
    <rect x="37" y="37" width="6" height="6" fill="#556677" opacity="0.5"/>
    <rect x="49" y="37" width="6" height="6" fill="#556677" opacity="0.5"/>
    <rect x="19" y="43" width="6" height="6" fill="#556677" opacity="0.5"/>
    <rect x="31" y="43" width="6" height="6" fill="#556677" opacity="0.5"/>
    <rect x="43" y="43" width="6" height="6" fill="#556677" opacity="0.5"/>
  </g>
  <g>
    <rect x="17" y="17" width="10" height="10" fill="#C084FC" opacity="1.0"/>
    <rect x="29" y="17" width="10" height="10" fill="#00E5FF" opacity="1.0"/>
    <rect x="41" y="17" width="10" height="10" fill="#C084FC" opacity="1.0"/>
    <rect x="11" y="23" width="10" height="10" fill="#00E5FF" opacity="1.0"/>
    <rect x="23" y="23" width="10" height="10" fill="#FFD700" opacity="1.0"/>
    <rect x="35" y="23" width="10" height="10" fill="#FFD700" opacity="1.0"/>
    <rect x="47" y="23" width="10" height="10" fill="#00E5FF" opacity="1.0"/>
    <rect x="23" y="29" width="10" height="10" fill="#FFD700" opacity="1.0"/>
    <rect x="29" y="29" width="10" height="10" fill="#FFD700" opacity="1.0"/>
    <rect x="35" y="29" width="10" height="10" fill="#FFD700" opacity="1.0"/>
    <rect x="11" y="35" width="10" height="10" fill="#00E5FF" opacity="1.0"/>
    <rect x="23" y="35" width="10" height="10" fill="#FFD700" opacity="1.0"/>
    <rect x="35" y="35" width="10" height="10" fill="#FFD700" opacity="1.0"/>
    <rect x="47" y="35" width="10" height="10" fill="#00E5FF" opacity="1.0"/>
    <rect x="17" y="41" width="10" height="10" fill="#C084FC" opacity="1.0"/>
    <rect x="29" y="41" width="10" height="10" fill="#00E5FF" opacity="1.0"/>
    <rect x="41" y="41" width="10" height="10" fill="#C084FC" opacity="1.0"/>
  </g>
  <g opacity="0.06">
    <line x1="0" y1="4" x2="64" y2="4" stroke="#000" stroke-width="1"/>
    <line x1="0" y1="8" x2="64" y2="8" stroke="#000" stroke-width="1"/>
    <line x1="0" y1="12" x2="64" y2="12" stroke="#000" stroke-width="1"/>
    <line x1="0" y1="16" x2="64" y2="16" stroke="#000" stroke-width="1"/>
    <line x1="0" y1="20" x2="64" y2="20" stroke="#000" stroke-width="1"/>
    <line x1="0" y1="24" x2="64" y2="24" stroke="#000" stroke-width="1"/>
    <line x1="0" y1="28" x2="64" y2="28" stroke="#000" stroke-width="1"/>
    <line x1="0" y1="32" x2="64" y2="32" stroke="#000" stroke-width="1"/>
    <line x1="0" y1="36" x2="64" y2="36" stroke="#000" stroke-width="1"/>
    <line x1="0" y1="40" x2="64" y2="40" stroke="#000" stroke-width="1"/>
    <line x1="0" y1="44" x2="64" y2="44" stroke="#000" stroke-width="1"/>
    <line x1="0" y1="48" x2="64" y2="48" stroke="#000" stroke-width="1"/>
    <line x1="0" y1="52" x2="64" y2="52" stroke="#000" stroke-width="1"/>
    <line x1="0" y1="56" x2="64" y2="56" stroke="#000" stroke-width="1"/>
    <line x1="0" y1="60" x2="64" y2="60" stroke="#000" stroke-width="1"/>
  </g>
</svg>
